<?xml version="1.0" standalone="no"?>
<!DOCTYPE svg PUBLIC "-//W3C//DTD SVG 20010904//EN"
 "http://www.w3.org/TR/2001/REC-SVG-20010904/DTD/svg10.dtd">
<svg version="1.0" xmlns="http://www.w3.org/2000/svg"
 width="250.000000pt" height="250.000000pt" viewBox="0 0 250.000000 250.000000"
 preserveAspectRatio="xMidYMid meet">

<g transform="translate(0.000000,250.000000) scale(0.100000,-0.100000)"
fill="#000000" stroke="none">
<path d="M1230 1975 l-23 -25 23 -25 23 -24 -24 -36 c-29 -41 -51 -44 -85 -9
-25 24 -26 35 -10 74 4 11 -2 19 -23 26 -26 10 -30 9 -40 -14 -11 -22 -9 -28
20 -51 31 -26 31 -26 16 -64 -13 -29 -21 -37 -42 -37 -45 0 -65 17 -65 55 0
33 -2 35 -35 35 -32 0 -35 -2 -35 -30 0 -25 4 -30 23 -30 32 0 57 -30 57 -69
0 -25 -5 -34 -27 -42 -40 -15 -73 -3 -86 31 -9 25 -15 28 -37 23 -33 -8 -33
-7 -25 -41 5 -26 10 -29 43 -28 33 1 39 -3 55 -34 17 -35 17 -35 -8 -57 -33
-29 -53 -29 -84 1 -26 24 -26 25 -50 7 -24 -18 -24 -19 -7 -46 17 -25 19 -26
41 -11 35 23 50 20 79 -15 l26 -31 34 21 c33 21 33 21 50 2 15 -16 22 -18 42
-9 22 10 23 13 10 33 -16 25 -12 35 15 35 15 0 17 5 12 31 -6 31 -5 32 20 25
24 -6 27 -3 27 19 0 26 18 33 38 13 9 -9 14 -6 21 13 8 19 5 27 -11 41 -18 16
-18 21 -8 54 l12 36 29 -28 29 -28 -20 -21 -20 -22 20 -18 c19 -17 21 -17 40
0 19 17 20 17 31 -8 10 -21 15 -24 30 -17 25 14 27 13 31 -12 2 -18 9 -22 30
-20 26 3 27 1 22 -28 -6 -26 -4 -30 15 -30 21 0 29 -24 11 -35 -16 -10 -12
-23 11 -36 17 -9 23 -7 36 10 l15 22 34 -22 34 -21 29 31 c33 35 47 38 78 16
21 -15 23 -14 39 11 17 25 17 27 -7 45 -24 19 -24 18 -44 -6 -24 -29 -51 -31
-84 -6 -19 15 -22 23 -17 49 9 40 28 54 67 50 28 -3 33 1 40 24 8 30 6 32 -32
42 -23 5 -27 2 -32 -23 -7 -34 -28 -44 -72 -35 -25 4 -34 12 -38 32 -7 38 12
72 45 79 23 4 28 11 28 34 0 26 -3 29 -35 29 -33 0 -35 -2 -29 -25 9 -36 -20
-65 -63 -65 -27 0 -35 5 -44 27 -15 40 -7 66 23 81 27 13 28 14 13 43 -15 28
-16 29 -44 14 -27 -14 -29 -17 -18 -44 9 -25 8 -33 -7 -50 -30 -33 -55 -36
-82 -10 -29 27 -31 56 -4 84 l20 21 -23 22 -23 22 -24 -25z m88 -238 c-20 -16
-22 -16 -39 -1 -24 22 -24 33 3 61 l22 24 18 -33 c17 -32 16 -33 -4 -51z
m-188 28 c34 -17 34 -19 20 -46 -6 -11 -21 -19 -35 -19 -22 0 -25 4 -25 40 0
45 0 46 40 25z m283 -17 c6 -41 2 -48 -28 -48 -21 0 -45 24 -45 44 0 6 50 35
61 36 4 0 9 -15 12 -32z m-339 -44 c33 -13 11 -64 -26 -64 -17 0 -38 35 -38
61 0 10 40 12 64 3z m416 -6 c-1 -41 -13 -59 -39 -56 -26 3 -38 26 -27 54 7
17 66 19 66 2z m-452 -100 c4 -38 -34 -50 -60 -18 -23 28 -23 37 0 43 37 11
57 2 60 -25z m510 17 c7 -7 -39 -55 -54 -55 -20 0 -36 28 -29 51 6 18 12 20
42 16 20 -4 38 -9 41 -12z"/>
<path d="M1255 1434 c-199 -71 -249 -79 -323 -49 -31 13 -34 13 -18 0 10 -8
42 -19 70 -25 66 -13 127 -1 259 52 54 22 117 43 140 48 l42 8 -35 1 c-19 0
-80 -15 -135 -35z"/>
<path d="M1395 1415 c-28 -7 -98 -32 -155 -55 -134 -53 -209 -61 -307 -32 -38
12 -89 36 -114 53 l-44 32 35 -37 c48 -51 141 -95 216 -102 77 -8 131 4 299
69 110 43 143 51 215 54 77 4 90 2 135 -21 l50 -26 -30 25 c-64 53 -190 70
-300 40z"/>
<path d="M1470 1345 c-30 -8 -89 -28 -130 -45 -41 -17 -102 -38 -135 -45 -49
-11 -54 -14 -25 -14 38 -1 114 21 225 64 39 15 102 33 140 40 63 12 66 13 25
13 -25 0 -70 -6 -100 -13z"/>
<path d="M140 970 c0 -53 4 -90 10 -90 6 0 10 16 10 35 0 34 1 35 39 35 53 0
86 27 77 64 -8 31 -39 46 -97 46 l-39 0 0 -90z m111 54 c21 -25 -1 -49 -50
-52 -41 -3 -41 -3 -41 32 0 35 1 36 39 36 23 0 44 -6 52 -16z"/>
<path d="M369 1031 c-20 -20 -29 -39 -29 -61 0 -41 47 -90 87 -90 62 0 106 65
83 120 -14 33 -55 60 -90 60 -12 0 -35 -13 -51 -29z m110 -17 c12 -15 21 -34
21 -44 0 -10 -9 -29 -21 -44 -40 -50 -119 -21 -119 44 0 65 79 94 119 44z"/>
<path d="M597 1053 c-11 -11 -8 -173 3 -173 6 0 10 16 10 35 0 30 3 35 24 35
16 0 34 -13 54 -37 17 -21 34 -35 38 -30 4 4 -5 21 -21 37 -16 16 -27 31 -24
32 2 2 13 8 24 14 29 16 31 59 3 78 -22 16 -98 22 -111 9z m97 -19 c21 -8 21
-50 0 -58 -9 -3 -31 -6 -50 -6 -32 0 -34 2 -34 35 0 33 2 35 34 35 19 0 41 -3
50 -6z"/>
<path d="M800 1050 c0 -5 14 -10 30 -10 l30 0 0 -80 c0 -47 4 -80 10 -80 6 0
10 33 10 80 l0 80 36 0 c21 0 33 4 29 10 -3 6 -37 10 -76 10 -39 0 -69 -4 -69
-10z"/>
<path d="M1130 968 l5 -93 3 74 3 75 74 -74 75 -74 0 86 c0 48 -4 90 -10 93
-6 4 -10 -21 -10 -67 l0 -73 -71 73 c-39 39 -72 72 -73 72 0 0 1 -42 4 -92z"/>
<path d="M1387 1053 c-11 -11 -8 -173 3 -173 6 0 10 37 10 90 0 90 -1 96 -13
83z"/>
<path d="M1490 970 c0 -99 17 -125 22 -32 l3 57 33 -57 c19 -32 35 -58 37 -58
2 0 18 26 37 58 l33 57 3 -57 c5 -93 22 -67 22 32 0 50 -2 90 -4 90 -2 0 -20
-28 -40 -62 -19 -35 -39 -69 -44 -76 -6 -8 -22 11 -51 63 -24 41 -45 75 -47
75 -2 0 -4 -40 -4 -90z"/>
<path d="M1789 978 c-55 -103 -52 -98 -41 -98 5 0 14 11 20 25 10 22 18 25 65
25 47 0 55 -3 67 -25 12 -22 37 -38 28 -17 -9 19 -78 149 -86 160 -6 10 -22
-10 -53 -70z m66 12 c20 -39 20 -40 -20 -40 -19 0 -35 2 -35 5 0 9 30 65 35
65 2 0 11 -13 20 -30z"/>
<path d="M1990 971 c0 -64 3 -90 11 -85 6 3 9 19 7 35 -4 26 -1 29 21 29 18 0
35 -11 54 -36 35 -43 48 -38 16 7 -16 22 -19 34 -11 37 18 6 42 32 42 46 0 31
-28 49 -84 54 l-56 4 0 -91z m111 53 c22 -27 -1 -49 -52 -49 -41 0 -43 2 -42
28 1 15 1 29 2 32 3 13 80 4 92 -11z"/>
<path d="M2219 978 c-55 -103 -52 -98 -41 -98 5 0 14 11 20 25 10 22 18 25 65
25 47 0 55 -3 67 -25 12 -22 37 -38 28 -17 -9 19 -78 149 -86 160 -6 10 -22
-10 -53 -70z m66 12 c20 -39 20 -40 -20 -40 -19 0 -35 2 -35 5 0 9 30 65 35
65 2 0 11 -13 20 -30z"/>
<path d="M952 695 c1 -51 2 -53 5 -16 l4 44 45 -44 44 -43 0 51 c0 29 -4 55
-10 58 -6 4 -10 -10 -10 -36 l0 -42 -40 44 -39 44 1 -60z"/>
<path d="M1096 728 c-9 -12 -16 -30 -16 -39 0 -26 35 -51 67 -47 22 2 28 8 28
28 0 16 -6 26 -17 28 -10 2 -18 -1 -18 -7 0 -6 7 -11 15 -11 23 0 18 -18 -7
-26 -29 -9 -62 29 -48 56 13 24 37 32 61 20 11 -6 19 -7 19 -1 0 5 -7 12 -16
15 -30 11 -53 6 -68 -16z"/>
<path d="M1222 710 c-3 -65 34 -92 72 -54 18 17 23 99 6 89 -6 -4 -9 -22 -8
-41 2 -32 -11 -53 -33 -54 -14 0 -28 28 -32 65 l-4 40 -1 -45z"/>
<path d="M1353 695 c0 -33 2 -45 4 -27 2 18 2 45 0 60 -2 15 -4 0 -4 -33z"/>
<path d="M1402 698 l3 -53 40 -1 c32 -1 34 -1 8 3 -32 4 -33 6 -33 48 0 24 -5
47 -11 50 -7 5 -9 -11 -7 -47z"/>
<path d="M1502 698 l-2 -58 38 2 c36 1 36 1 5 5 -31 4 -32 6 -36 56 l-3 52 -2
-57z"/>
<path d="M1616 705 c-24 -44 -38 -92 -15 -52 12 21 62 23 79 2 24 -29 20 -8
-9 44 l-28 53 -27 -47z m38 -1 c9 -23 8 -24 -14 -24 -11 0 -20 2 -20 4 0 12
13 36 20 36 4 0 11 -7 14 -16z"/>
<path d="M826 690 c-15 -27 -23 -50 -18 -50 6 0 12 7 16 15 3 9 18 15 36 15
18 0 33 -6 36 -15 4 -8 10 -15 16 -15 5 0 -3 23 -18 50 -15 28 -30 50 -34 50
-4 0 -19 -22 -34 -50z m48 14 c9 -23 8 -24 -14 -24 -11 0 -20 2 -20 4 0 12 13
36 20 36 4 0 11 -7 14 -16z"/>
</g>
</svg>
